<svg width="19" height="20" viewBox="0 0 19 20" fill="none" xmlns="http://www.w3.org/2000/svg">
<path d="M17.6402 10.505L17.6402 3.34798L14.6102 3.34798L14.4572 3.32998C11.6442 2.67398 9.78019 2.20098 8.85119 1.90798C7.61719 1.51898 7.15719 1.42398 6.32019 1.36798C5.69419 1.32498 4.9832 1.56598 4.65919 1.89598C4.48019 2.07798 4.34619 2.45198 4.29319 3.03198C4.28222 3.1536 4.23874 3.27004 4.16731 3.36909C4.09588 3.46814 3.99913 3.54616 3.88719 3.59498C3.63819 3.70298 3.43119 3.87898 3.25819 4.13498C3.09819 4.36898 2.99419 4.80498 2.97519 5.43598C2.97185 5.55198 2.93897 5.66522 2.87964 5.76496C2.82032 5.86471 2.73653 5.94766 2.63619 6.00598C2.05419 6.34298 1.76619 6.72298 1.70619 7.16898C1.64019 7.66198 1.80019 8.21698 2.21919 8.84898C2.3175 8.9972 2.35412 9.17792 2.32125 9.35272C2.28838 9.52751 2.18862 9.68259 2.04319 9.78498C1.64219 10.067 1.42219 10.459 1.36719 11.015C1.27919 11.901 1.84419 12.556 3.12319 12.687C4.26232 12.7996 5.41245 12.7037 6.51719 12.404C6.64251 12.3712 6.77458 12.375 6.89785 12.4147C7.02112 12.4545 7.13048 12.5286 7.21305 12.6284C7.29562 12.7282 7.34797 12.8495 7.36394 12.978C7.37991 13.1066 7.35883 13.237 7.30319 13.354C6.80319 14.412 6.52519 15.285 6.46019 15.961C6.37519 16.858 6.58219 17.508 7.06619 18.044C7.43319 18.45 8.02019 18.682 8.24019 18.634C8.53019 18.572 8.71919 18.404 8.96519 17.816C9.11019 17.468 9.18019 17.172 9.30019 16.481C9.41519 15.825 9.47819 15.529 9.60919 15.141C10.0042 13.965 10.9732 12.746 12.2742 11.905C13.186 11.3163 14.1742 10.8553 15.2112 10.535C15.276 10.515 15.3434 10.5049 15.4112 10.505L17.6402 10.505ZM17.6822 1.98498C18.0052 1.97598 18.2952 2.04798 18.5382 2.21798C18.8482 2.43498 18.9942 2.77698 18.9972 3.17098L18.9942 10.494C19.0282 10.884 18.9132 11.242 18.6412 11.508C18.3862 11.758 18.0532 11.876 17.7012 11.868L15.5162 11.868C14.6323 12.1496 13.7897 12.5471 13.0102 13.05C11.9622 13.728 11.1902 14.7 10.8952 15.576C10.7942 15.878 10.7402 16.128 10.6382 16.716C10.5002 17.505 10.4142 17.872 10.2162 18.344C9.80619 19.326 9.26819 19.806 8.52619 19.967C7.79619 20.125 6.73319 19.704 6.06119 18.96C5.31619 18.136 4.98719 17.105 5.10919 15.831C5.16119 15.283 5.31319 14.67 5.56319 13.987C4.70942 14.1114 3.84357 14.1302 2.98519 14.043C0.978194 13.838 -0.148807 12.531 0.0151928 10.879C0.0871934 10.167 0.345195 9.56198 0.784194 9.08698C0.415195 8.37598 0.268195 7.67298 0.360194 6.98698C0.466195 6.19698 0.906194 5.53898 1.63819 5.02798C1.69519 4.33498 1.85419 3.78198 2.13619 3.36798C2.35839 3.03351 2.64831 2.74939 2.98719 2.53398C3.09519 1.84998 3.32219 1.31498 3.69319 0.938979C4.30819 0.312979 5.40719 -0.0600216 6.41119 0.00797925C7.36419 0.0719785 7.92819 0.18798 9.25819 0.60798C10.1352 0.88498 11.9512 1.34498 14.6882 1.98498L17.6832 1.98498L17.6822 1.98498ZM15.9812 10.816C15.9815 10.9054 15.9641 10.9941 15.93 11.0768C15.896 11.1596 15.8459 11.2348 15.7827 11.2981C15.7196 11.3615 15.6445 11.4117 15.5619 11.446C15.4792 11.4803 15.3907 11.498 15.3012 11.498C15.2119 11.4977 15.1235 11.4799 15.0411 11.4455C14.9587 11.411 14.8839 11.3607 14.8209 11.2974C14.758 11.2341 14.7081 11.159 14.6742 11.0764C14.6403 10.9938 14.6229 10.9053 14.6232 10.816L14.6232 3.13798C14.6231 3.04868 14.6405 2.96023 14.6746 2.87768C14.7086 2.79513 14.7586 2.72009 14.8217 2.65685C14.8847 2.59362 14.9596 2.54342 15.042 2.50912C15.1245 2.47483 15.2129 2.45711 15.3022 2.45698C15.3915 2.45711 15.4799 2.47483 15.5623 2.50912C15.6448 2.54342 15.7197 2.59362 15.7827 2.65685C15.8458 2.72009 15.8958 2.79513 15.9298 2.87768C15.9639 2.96023 15.9813 3.04868 15.9812 3.13798L15.9812 10.816Z" fill="#616161"/>
</svg>
